<svg width="377" height="291" viewBox="0 0 377 291" fill="none" xmlns="http://www.w3.org/2000/svg">
<path d="M346.439 159.089L346.307 158.871L346.168 158.649L298.539 84.057L298.357 83.7831L298.175 83.5085C270.418 42.8519 218.588 25.8378 172.129 42.1308L43.1401 87.3659C-3.31961 103.659 -33.1709 149.318 -29.4551 198.406L-29.4316 198.736L-29.3976 199.062L-20.0051 287.062L-19.9775 287.317L-19.9441 287.569C-15.2319 323.521 15.658 349.998 51.9033 349.17L53.1759 349.136C60.6018 348.972 67.9491 347.636 74.9695 345.174C98.5304 336.911 116.097 316.655 120.987 292.193L128.822 262.44L129.015 261.696L129.162 260.939C129.385 259.736 130.234 258.738 131.377 258.337L210.004 230.763C211.148 230.362 212.434 230.612 213.36 231.411L213.947 231.912L214.563 232.372L239.264 250.715C258.361 266.764 284.731 271.612 308.298 263.347C315.318 260.885 321.891 257.34 327.822 252.807L328.803 252.064C357.621 230.082 365.201 190.107 346.439 159.089ZM315.836 235.07L314.852 235.821C310.631 239.046 306.027 241.496 301.223 243.181C284.89 248.908 266.263 245.763 252.568 233.975L227.309 215.215C220.592 209.428 211.291 207.664 202.93 210.596L124.302 238.17C115.942 241.102 109.78 248.29 108.147 257.004L100.138 287.431C96.8061 305.19 84.2283 319.279 67.8947 325.007C63.0907 326.692 57.9657 327.653 52.6551 327.771L51.4119 327.801C26.1585 328.381 4.53164 309.832 1.25133 284.795L-8.14089 196.792C-11.1342 157.263 12.8022 120.653 50.212 107.534L179.2 62.2986C216.61 49.1795 258.17 62.8208 280.52 95.5613L328.149 170.154C341.22 191.758 335.921 219.75 315.836 235.07Z" fill="#7337D4"/>
<path d="M57.3262 148.892L33.1357 157.376L42.8779 185.156L15.0928 194.9L23.5724 219.079L51.3575 209.335L61.1033 237.126L85.2938 228.642L75.5481 200.852L103.333 191.108L94.8535 166.928L67.0684 176.672L57.3262 148.892Z" fill="#7337D4"/>
<path d="M216.18 120.871C224.595 117.92 229.019 108.719 226.071 100.314C223.12 91.8983 213.919 87.4753 205.504 90.4264C197.099 93.3738 192.676 102.575 195.628 110.991C198.574 119.395 207.776 123.818 216.18 120.871Z" fill="#7337D4"/>
<path d="M185.736 131.548C177.332 134.495 172.905 143.704 175.85 152.103C178.802 160.519 188.01 164.945 196.415 161.998C204.825 159.049 209.246 149.842 206.294 141.426C203.349 133.027 194.146 128.599 185.736 131.548Z" fill="#7337D4"/>
<path d="M226.857 151.316C218.453 154.263 214.03 163.464 216.981 171.88C219.928 180.284 229.129 184.707 237.534 181.76C245.949 178.809 250.372 169.608 247.424 161.203C244.473 152.788 235.271 148.365 226.857 151.316Z" fill="#7337D4"/>
<path d="M246.623 110.195C238.219 113.143 233.797 122.349 236.742 130.748C239.694 139.164 248.897 143.593 257.302 140.645C265.711 137.696 270.138 128.488 267.187 120.072C264.241 111.673 255.033 107.246 246.623 110.195Z" fill="#7337D4"/>
</svg>
